<svg width="24px" height="24px" viewBox="0 0 24 24" version="1.1" xmlns="http://www.w3.org/2000/svg" xmlns:xlink="http://www.w3.org/1999/xlink">
    <g id="Base-Styles" stroke="none" stroke-width="1" fill="none" fill-rule="evenodd">
        <g id="Artboard" transform="translate(-682.000000, -107.000000)">
            <g id="Group-4" transform="translate(662.000000, 87.000000)">
                <g id="Group-2">
                    <g id="Group-5" transform="translate(20.000000, 20.000000)">
                        <circle id="Oval" fill="#FF5959" cx="12" cy="12" r="12"></circle>
                        <path d="M13.1640625,14.5078125 L11.2890625,14.5078125 L11.0234375,6.625 L13.4296875,6.625 L13.1640625,14.5078125 Z M12.2265625,15.7421875 C12.6067727,15.7421875 12.9127593,15.8541655 13.1445312,16.078125 C13.3763032,16.3020845 13.4921875,16.5885399 13.4921875,16.9375 C13.4921875,17.2812517 13.3763032,17.565103 13.1445312,17.7890625 C12.9127593,18.013022 12.6067727,18.125 12.2265625,18.125 C11.8515606,18.125 11.5481782,18.013022 11.3164062,17.7890625 C11.0846343,17.565103 10.96875,17.2812517 10.96875,16.9375 C10.96875,16.5937483 11.0846343,16.3085949 11.3164062,16.0820312 C11.5481782,15.8554676 11.8515606,15.7421875 12.2265625,15.7421875 Z" id="point" fill="#FFFFFF" fill-rule="nonzero"></path>
                    </g>
                </g>
            </g>
        </g>
    </g>
</svg>